<?xml version="1.0" standalone="no"?>
<!DOCTYPE svg PUBLIC "-//W3C//DTD SVG 20010904//EN"
 "http://www.w3.org/TR/2001/REC-SVG-20010904/DTD/svg10.dtd">
<svg version="1.0" xmlns="http://www.w3.org/2000/svg" viewBox="0 0 600.000000 600.000000"
 preserveAspectRatio="xMidYMid meet">

  <defs>
    <radialGradient id="customGradient"
      x1="0" y1="0" x2="1200" y2="1200">
      <stop offset="0%" style="stop-color:#fbc2eb" /> 
      <stop offset="100%" style="stop-color:#a18cd1" />
    </radialGradient>
  </defs>

<g transform="translate(0.000000,600.000000) scale(0.100000,-0.100000)" fill="url(#customGradient)" stroke="none">
<path d="M1350 5224 c-14 -2 -52 -9 -85 -15 -75 -13 -224 -85 -288 -138 -198
-165 -291 -448 -228 -693 51 -198 202 -383 379 -464 195 -89 480 -70 655 43
l27 18 500 -500 c275 -275 499 -503 498 -507 -6 -13 -438 -451 -715 -722
l-284 -278 -59 31 c-105 56 -165 72 -291 78 -219 10 -371 -47 -520 -196 -107
-107 -171 -225 -195 -361 -61 -339 140 -680 461 -783 59 -19 92 -22 215 -22
131 1 152 3 218 27 203 73 351 224 430 437 37 101 42 270 12 395 l-22 94 21
28 c29 39 1010 1009 1021 1009 14 0 1023 -986 1040 -1016 6 -11 2 -35 -13 -75
-19 -51 -22 -79 -22 -214 0 -171 8 -208 72 -331 67 -129 187 -242 321 -302
187 -84 437 -73 627 26 76 40 201 163 246 242 115 199 131 388 52 610 -74 205
-268 371 -491 421 -156 35 -375 3 -493 -72 l-41 -26 -147 144 c-409 401 -589
575 -718 697 -78 74 -144 140 -147 146 -5 14 78 101 404 420 141 138 335 329
433 425 155 152 180 173 195 162 146 -103 391 -136 583 -78 191 58 364 229
436 430 46 131 50 302 9 431 -25 80 -80 183 -122 230 -14 17 -31 37 -38 45
-20 28 -135 108 -194 136 -78 37 -212 71 -292 73 -100 3 -212 -24 -320 -77
-78 -39 -110 -62 -181 -132 -70 -70 -94 -102 -127 -170 -52 -108 -72 -191 -72
-305 0 -83 7 -123 41 -244 l12 -44 -129 -126 c-71 -69 -307 -302 -525 -517
l-396 -392 -299 291 c-165 160 -402 393 -527 517 l-229 226 24 75 c19 62 23
95 23 209 0 115 -4 146 -23 205 -71 211 -243 379 -467 453 -59 20 -205 34
-255 26z m197 -394 c106 -45 193 -176 193 -289 0 -89 -26 -148 -93 -216 -73
-73 -136 -100 -237 -99 -81 0 -157 33 -219 95 -72 73 -86 109 -86 219 0 84 3
101 27 145 27 51 80 107 130 138 68 42 197 45 285 7z m3375 -3 c118 -58 182
-159 182 -287 0 -56 -6 -88 -23 -125 -72 -162 -275 -236 -436 -159 -58 27
-122 92 -152 152 -23 47 -28 69 -27 132 1 115 47 204 138 263 70 46 109 57
193 53 52 -2 86 -10 125 -29z m-3390 -3133 c26 -8 70 -36 97 -60 176 -158 133
-433 -82 -529 -74 -34 -155 -37 -238 -10 -71 24 -169 120 -193 190 -47 139 8
305 124 377 92 57 187 67 292 32z m3396 -15 c64 -31 132 -101 154 -159 49
-128 14 -283 -82 -364 -159 -133 -384 -98 -496 76 -71 112 -43 302 58 393 107
97 237 116 366 54z"/>
</g>
</svg>
